<svg id="header" xmlns="http://www.w3.org/2000/svg" viewBox="0 0 861.54 817.71"><defs><style>.cls-1{fill:#231f20;}.cls-2{fill:#fff;}.cls-2,.cls-4{stroke:#fff;}.cls-2,.cls-3,.cls-4,.cls-5{stroke-miterlimit:10;stroke-width:4px;}.cls-3,.cls-8{fill:#ed1c24;}.cls-3{stroke:#ed1c24;}.cls-4,.cls-5{fill:none;}.cls-5{stroke:#231f20;}.cls-6{fill:#58515f;}.cls-7,.cls-8{isolation:isolate;}.cls-8{font-size:72px;font-family:Arial-BoldMT, Arial;font-weight:700;letter-spacing:0.49em;}</style></defs><circle class="cls-1" cx="422.77" cy="416.24" r="326.23"/><path class="cls-2" d="M147.19,521.29a16.36,16.36,0,1,0,16.37-16.35h0a16.35,16.35,0,0,0-16.36,16.34Z" transform="translate(95.75 90.92)"/><path class="cls-2" d="M302.32,77.29a16.35,16.35,0,1,0,16.35-16.35,16.35,16.35,0,0,0-16.35,16.35Z" transform="translate(95.75 90.92)"/><path class="cls-3" d="M560.06,220.86a16.36,16.36,0,1,0,16.37-16.35h0a16.35,16.35,0,0,0-16.36,16.34Z" transform="translate(95.75 90.92)"/><line class="cls-4" x1="441.85" y1="375.58" x2="503.96" y2="354.02"/><polyline class="cls-4" points="521.57 374.13 548.33 338.33 503.2 313.19 516.74 270.27 591.95 274.03 591.95 244.32 486.66 214.61 467.11 272.52 341.51 320.65 195.51 253.72"/><polyline class="cls-4" points="465.6 325.6 450.42 411.9 400.92 443.24 437.77 472.62"/><line class="cls-4" x1="400.92" y1="429.71" x2="443.04" y2="465.05"/><line class="cls-4" x1="413.71" y1="419.93" x2="453.57" y2="459.04"/><polyline class="cls-4" points="413.71 333.42 418.97 395.92 370.09 433.46 400.92 465.05"/><line class="cls-4" x1="491.57" y1="378.34" x2="506.75" y2="342.96"/><line class="cls-4" x1="497.4" y1="382.26" x2="513.4" y2="347.26"/><line class="cls-4" x1="502.58" y1="249.21" x2="605.01" y2="265.75"/><path class="cls-4" d="M421.27,158.29a10.15,10.15,0,1,0,10.15-10.15h0A10.14,10.14,0,0,0,421.27,158.29Z" transform="translate(95.75 90.92)"/><line class="cls-4" x1="482.84" y1="333.42" x2="517.02" y2="355.65"/><line class="cls-4" x1="358.37" y1="375.58" x2="400.92" y2="368.11"/><line class="cls-4" x1="358.37" y1="375.58" x2="195.51" y2="253.72"/><line class="cls-4" x1="59.97" y1="655.26" x2="673.97" y2="655.26"/><line class="cls-4" x1="253.05" y1="116.52" x2="253.05" y2="370.52"/><line class="cls-4" x1="445.16" y1="569.96" x2="799.16" y2="569.96"/><path class="cls-4" d="M371.84,606.69a16.36,16.36,0,1,0,16.37-16.35h0a16.35,16.35,0,0,0-16.36,16.34Z" transform="translate(95.75 90.92)"/><polyline class="cls-4" points="500.3 697.61 500.3 593.03 531.65 615.63"/><line class="cls-4" x1="500.3" y1="608.48" x2="530.65" y2="631.03"/><path class="cls-4" d="M560.06,412.2a16.36,16.36,0,1,0,16.37-16.35h0a16.35,16.35,0,0,0-16.36,16.34Z" transform="translate(95.75 90.92)"/><path class="cls-4" d="M634.72,374.59a16.35,16.35,0,1,0,16.35-16.35h0A16.35,16.35,0,0,0,634.72,374.59Z" transform="translate(95.75 90.92)"/><polyline class="cls-4" points="688.52 507.87 688.52 392.27 763.17 392.27 763.17 467.17"/><line class="cls-4" x1="688.52" y1="408.85" x2="763.17" y2="408.85"/><path class="cls-5" d="M481.15,527.38s54,20.41,50,73.91" transform="translate(95.75 90.92)"/><path class="cls-4" d="M19.55,306.36s54,20.41,50,73.91" transform="translate(95.75 90.92)"/><path class="cls-4" d="M244.06,100.55A16.36,16.36,0,1,0,260.43,84.2h0a16.35,16.35,0,0,0-16.36,16.34Z" transform="translate(95.75 90.92)"/><path class="cls-6" d="M-95.75-90.92V726.79H765.79V-90.92ZM326.14,652.27C146,652.27,0,506.26,0,326.14S146,0,326.14,0,652.27,146,652.27,326.14,506.26,652.27,326.14,652.27Z" transform="translate(95.75 90.92)"/><path class="cls-3" d="M281.61,564.34A16.35,16.35,0,1,0,298,548a16.35,16.35,0,0,0-16.39,16.34Z" transform="translate(95.75 90.92)"/><g class="cls-7"><text class="cls-8" transform="translate(228.37 439.95)">raptor</text><text class="cls-8" transform="translate(254.01 531.15)">token</text></g></svg>